<?xml version="1.0" standalone="no"?>
<!DOCTYPE svg PUBLIC "-//W3C//DTD SVG 20010904//EN"
 "http://www.w3.org/TR/2001/REC-SVG-20010904/DTD/svg10.dtd">
<svg version="1.0" xmlns="http://www.w3.org/2000/svg"
 width="500.000000pt" height="500.000000pt" viewBox="0 0 500.000000 500.000000"
 preserveAspectRatio="xMidYMid meet">
<metadata>
Created by potrace 1.14, written by Peter Selinger 2001-2017
</metadata>
<g transform="translate(0.000000,500.000000) scale(0.100000,-0.100000)"
fill="#000000" stroke="none">
<path d="M2470 3618 c-23 -39 -36 -95 -50 -222 -18 -153 -54 -244 -118 -298
l-29 -24 19 -25 c43 -52 70 -121 65 -162 -7 -51 -17 -61 -50 -46 -24 11 -26
17 -26 74 1 35 -6 78 -15 99 -14 34 -19 38 -43 32 -115 -26 -157 -29 -249 -17
-52 7 -135 25 -185 41 -96 30 -96 30 -40 -33 15 -16 76 -60 137 -98 170 -105
230 -184 254 -333 18 -114 -20 -296 -86 -415 -13 -24 -24 -45 -24 -48 0 -9 50
24 125 82 305 237 448 564 391 895 -40 233 -48 292 -49 407 -1 68 -3 123 -5
123 -1 0 -11 -14 -22 -32z"/>
<path d="M2157 3421 l-87 -6 -80 -80 c-45 -45 -75 -81 -68 -84 7 -2 19 -11 27
-20 13 -15 13 -15 8 1 -6 17 17 28 61 28 18 0 22 -5 22 -31 0 -143 175 -184
244 -58 26 48 15 103 -29 145 l-33 31 41 42 42 41 -30 -2 c-17 0 -69 -4 -118
-7z"/>
<path d="M1976 3164 c10 -45 18 -54 33 -44 12 7 9 14 -13 41 l-27 32 7 -29z"/>
<path d="M706 1933 c14 -28 17 -279 4 -303 -10 -19 -8 -20 37 -20 36 0 44 3
35 12 -7 7 -12 36 -12 65 0 51 1 53 28 53 38 1 108 34 121 58 6 12 11 36 11
55 0 63 -62 95 -184 97 -42 0 -47 -2 -40 -17z m147 -24 c50 -61 26 -144 -46
-156 l-37 -6 0 98 0 98 33 -7 c17 -3 40 -16 50 -27z"/>
<path d="M959 1932 c16 -29 15 -294 -1 -310 -9 -9 -1 -12 37 -12 38 0 46 3 37
12 -7 7 -12 42 -12 85 l0 73 30 0 c29 0 33 -5 70 -85 l39 -85 81 0 c77 0 80 1
70 19 -13 25 -13 288 0 296 21 13 8 25 -27 25 l-38 0 0 -162 c0 -157 -1 -163
-21 -166 -17 -2 -26 9 -49 63 -15 36 -38 73 -50 83 l-23 18 28 12 c32 15 55
61 45 92 -11 35 -48 50 -140 57 -86 6 -87 6 -76 -15z m136 -14 c54 -47 25
-128 -46 -128 l-29 0 0 75 c0 73 1 75 24 75 14 0 37 -10 51 -22z"/>
<path d="M1445 1945 c6 -2 23 -6 39 -10 16 -3 42 -20 58 -37 l28 -30 0 30 c0
25 -6 32 -31 41 -18 6 -48 11 -68 10 -20 0 -31 -2 -26 -4z"/>
<path d="M1597 1943 c-4 -3 -7 -18 -7 -32 1 -23 2 -24 13 -10 15 20 51 39 71
39 14 0 16 -21 16 -153 0 -106 -4 -157 -12 -165 -9 -9 -1 -12 35 -12 44 0 47
1 37 20 -6 12 -9 75 -8 162 l3 143 30 -2 c17 -1 38 -12 48 -24 l17 -21 0 31 0
31 -118 0 c-65 0 -122 -3 -125 -7z"/>
<path d="M1866 1933 c14 -28 17 -279 4 -303 -10 -19 -8 -20 36 -20 39 0 45 2
35 14 -9 11 -11 60 -9 170 l3 156 -39 0 c-33 0 -37 -2 -30 -17z"/>
<path d="M1986 1933 c13 -28 17 -279 4 -303 -10 -18 -8 -20 21 -20 31 0 31 1
15 19 -14 15 -16 37 -14 134 l3 115 105 -133 c58 -74 108 -134 113 -135 4 0 7
69 7 154 0 85 3 161 6 170 5 13 -1 16 -26 16 -33 0 -33 0 -14 -21 16 -17 20
-40 22 -128 3 -79 1 -103 -8 -95 -6 6 -53 62 -103 125 -63 78 -100 115 -116
117 -20 3 -22 1 -15 -15z"/>
<path d="M2298 1794 c2 -110 0 -159 -9 -170 -10 -12 6 -14 115 -14 l126 0 0
34 0 34 -30 -29 c-27 -27 -35 -30 -87 -27 l-58 3 -2 158 -3 157 40 0 c49 0 82
-13 109 -41 22 -24 26 -15 15 29 -6 21 -11 22 -113 22 l-106 0 3 -156z"/>
<path d="M2810 1943 c54 -9 91 -26 110 -50 l20 -26 0 31 c0 27 -5 32 -37 41
-21 6 -56 10 -78 10 -26 -1 -31 -3 -15 -6z"/>
<path d="M3085 1936 c-70 -30 -113 -119 -96 -197 19 -85 79 -130 171 -128 53
1 53 2 17 9 -81 15 -138 95 -141 194 -3 141 136 169 206 40 49 -90 45 -191 -9
-223 -10 -6 -14 -11 -10 -11 18 0 68 43 84 73 20 40 21 123 0 162 -42 81 -140
117 -222 81z"/>
<path d="M3360 1941 c0 -6 5 -13 10 -16 15 -9 13 -288 -2 -303 -9 -9 -5 -12
22 -12 32 0 32 1 16 19 -14 15 -16 37 -14 136 l3 117 110 -139 110 -138 3 159
c1 97 7 165 13 173 9 10 5 13 -20 13 -35 0 -38 -6 -16 -30 13 -14 15 -39 13
-120 l-3 -103 -99 127 c-77 98 -104 126 -122 126 -13 0 -24 -4 -24 -9z"/>
<path d="M3857 1939 c48 -9 87 -34 102 -64 8 -17 10 -14 10 17 1 34 -2 38 -36
47 -21 6 -56 10 -78 10 l-40 -1 42 -9z"/>
<path d="M4016 1933 c13 -28 17 -279 4 -303 -10 -20 -8 -20 110 -20 l120 0 -1
38 c0 33 -2 35 -11 16 -14 -30 -50 -44 -108 -44 l-50 0 0 161 0 161 57 -4 c46
-4 61 -10 80 -33 l24 -28 -3 34 -3 34 -114 3 c-106 2 -113 1 -105 -15z"/>
<path d="M4289 1932 c16 -29 15 -294 -1 -310 -9 -9 -1 -12 37 -12 38 0 46 3
37 12 -7 7 -12 35 -12 64 l0 51 51 7 c85 11 131 78 103 151 -11 27 -61 45
-145 52 -80 6 -81 6 -70 -15z m149 -28 c49 -56 13 -154 -58 -154 l-30 0 0 96
0 97 33 -7 c17 -3 42 -17 55 -32z"/>
<path d="M4520 1919 c0 -31 0 -31 18 -10 9 11 32 24 50 27 l32 7 0 -155 c0
-106 -4 -158 -12 -166 -9 -9 -1 -12 37 -12 38 0 46 3 37 12 -8 8 -12 60 -12
166 l0 155 33 -7 c17 -3 40 -16 50 -27 17 -21 17 -21 17 10 l0 31 -125 0 -125
0 0 -31z"/>
<path d="M1387 1920 c-34 -27 -44 -73 -22 -106 9 -14 44 -38 79 -53 73 -33 96
-54 96 -86 0 -34 -26 -55 -68 -55 -44 0 -76 20 -103 64 l-20 31 3 -40 c4 -50
29 -65 111 -65 51 0 62 4 88 29 21 21 29 39 29 63 0 43 -26 68 -101 102 -31
13 -63 32 -72 41 -24 23 -21 61 5 79 12 9 18 16 12 16 -6 0 -23 -9 -37 -20z"/>
<path d="M2724 1921 c-50 -31 -78 -77 -82 -140 -4 -70 19 -117 74 -149 34 -20
50 -22 127 -20 93 3 107 10 107 56 0 22 -2 21 -34 -12 -28 -31 -40 -36 -77
-36 -84 0 -136 54 -146 154 -7 66 15 119 59 146 18 11 26 20 18 20 -8 0 -29
-9 -46 -19z"/>
<path d="M3749 1917 c-55 -37 -79 -81 -79 -147 0 -43 6 -66 23 -91 36 -54 78
-70 174 -67 45 2 87 8 92 13 6 6 13 26 17 45 l6 35 -21 -32 c-25 -40 -49 -53
-98 -53 -89 0 -148 78 -141 186 4 66 27 106 73 124 15 7 16 9 4 9 -9 1 -31 -9
-50 -22z"/>
<path d="M2470 1816 c-6 -8 -21 -17 -33 -19 -21 -3 -21 -4 -2 -12 11 -4 28
-15 38 -23 16 -14 17 -12 17 26 0 46 -2 49 -20 28z"/>
<path d="M4196 1815 c-3 -8 -15 -15 -26 -15 -11 0 -20 -4 -20 -10 0 -5 9 -10
20 -10 10 0 24 -8 29 -17 8 -14 10 -9 11 25 0 44 -4 52 -14 27z"/>
<path d="M1537 1319 c-24 -14 -21 -38 7 -49 13 -5 27 -14 31 -19 10 -17 -23
-25 -42 -10 -14 12 -16 12 -11 -1 3 -9 17 -15 34 -15 40 0 40 34 1 53 -22 10
-26 17 -18 25 9 9 17 8 31 -1 11 -7 20 -8 20 -2 0 17 -34 29 -53 19z"/>
<path d="M1957 1319 c-21 -12 -23 -72 -2 -89 18 -15 47 -10 53 10 5 13 3 13
-11 1 -27 -21 -49 -6 -45 31 3 35 33 51 49 26 6 -9 9 -9 9 -1 0 19 -33 33 -53
22z"/>
<path d="M2574 1315 c-18 -15 -18 -16 4 -34 12 -11 28 -21 35 -24 9 -4 9 -7
-1 -18 -10 -11 -16 -11 -33 0 -18 10 -20 10 -17 -1 3 -7 18 -13 34 -13 22 0
30 5 32 22 3 17 -3 24 -22 29 -14 3 -26 12 -26 20 0 17 36 19 43 2 4 -10 6
-10 6 -1 2 22 -34 34 -55 18z"/>
<path d="M2788 1323 c-27 -6 -22 -42 7 -55 14 -6 25 -17 25 -25 0 -15 -26 -18
-35 -3 -3 6 -11 10 -17 10 -6 0 -6 -6 2 -16 17 -19 64 -14 68 8 2 11 -8 23
-27 33 -40 20 -41 39 -1 32 17 -4 30 -5 30 -2 0 9 -36 21 -52 18z"/>
<path d="M3140 1310 c-34 -34 -19 -90 25 -90 47 0 59 77 15 100 -15 8 -24 6
-40 -10z m45 -40 c0 -28 -4 -35 -20 -35 -13 0 -21 8 -23 23 -5 34 5 54 25 50
13 -2 18 -13 18 -38z"/>
<path d="M1720 1296 c0 -40 18 -76 38 -76 29 0 42 21 41 65 l-2 40 -6 -42 c-8
-49 -14 -58 -36 -50 -10 4 -15 20 -15 47 0 22 -4 40 -10 40 -5 0 -10 -11 -10
-24z"/>
<path d="M2156 1304 c-23 -60 27 -114 64 -69 9 10 9 15 1 15 -6 0 -11 -4 -11
-10 0 -15 -26 -12 -40 5 -18 21 -4 65 20 65 11 0 20 -4 20 -10 0 -5 4 -10 10
-10 5 0 7 7 4 15 -8 20 -60 19 -68 -1z"/>
<path d="M2360 1270 l0 -50 38 1 c30 2 32 3 10 6 -35 5 -39 40 -5 46 l22 4
-22 2 c-33 2 -29 29 5 34 22 3 20 4 -10 6 l-38 1 0 -50z"/>
<path d="M3342 1279 c3 -49 27 -71 56 -53 19 12 30 94 13 94 -6 0 -11 -20 -11
-45 0 -38 -3 -45 -20 -45 -17 0 -20 7 -20 45 0 25 -5 45 -11 45 -6 0 -9 -17
-7 -41z"/>
<path d="M3561 1268 c1 -29 4 -43 6 -30 2 12 9 22 15 22 5 0 19 -10 29 -22
l20 -23 -11 23 c-9 17 -8 27 0 38 19 22 4 44 -30 44 -30 0 -30 0 -29 -52z m47
25 c-5 -26 -38 -29 -38 -4 0 15 6 21 21 21 14 0 19 -5 17 -17z"/>
<path d="M2330 1110 c-23 -23 -26 -49 -7 -74 15 -21 58 -18 65 4 5 13 3 13
-11 1 -25 -20 -47 -6 -47 29 0 34 22 49 45 30 10 -8 15 -9 15 -2 0 6 -9 16
-20 22 -15 8 -24 6 -40 -10z"/>
<path d="M3010 1110 c-34 -34 -19 -90 25 -90 47 0 59 77 15 100 -15 8 -24 6
-40 -10z m45 -40 c0 -28 -4 -35 -20 -35 -13 0 -21 8 -23 23 -5 34 5 54 25 50
13 -2 18 -13 18 -38z"/>
<path d="M1651 1110 c-2 -27 20 -91 29 -85 5 3 12 20 16 38 7 34 10 31 28 -27
10 -28 23 -8 30 44 l5 45 -13 -39 -12 -39 -10 32 c-11 41 -26 40 -38 -1 l-9
-33 -12 40 c-7 22 -13 33 -14 25z"/>
<path d="M1925 1111 c-15 -25 -33 -91 -25 -91 6 0 10 7 10 15 0 21 46 19 54
-1 4 -9 9 -15 11 -12 6 6 -31 98 -39 98 -3 0 -7 -4 -11 -9z m25 -43 c0 -5 -7
-8 -15 -8 -17 0 -18 2 -9 25 5 13 8 14 15 3 5 -7 9 -16 9 -20z"/>
<path d="M2122 1113 c12 -3 18 -18 21 -51 l3 -47 2 47 c2 35 6 48 20 51 9 3
-1 5 -23 5 -22 0 -32 -2 -23 -5z"/>
<path d="M2533 1070 c0 -30 2 -42 4 -27 4 24 9 28 31 25 18 -2 28 -11 33 -28
5 -17 7 -7 7 30 -1 30 -3 45 -5 33 -3 -18 -11 -23 -33 -23 -22 0 -30 5 -33 23
-2 12 -4 -3 -4 -33z"/>
<path d="M2751 1083 c18 -69 20 -70 39 -28 10 22 19 35 19 28 1 -6 6 -24 12
-40 12 -33 22 -21 33 40 8 46 0 49 -13 5 l-9 -33 -12 33 c-14 37 -20 35 -36
-11 l-11 -32 -8 38 c-4 20 -11 37 -15 37 -5 0 -4 -17 1 -37z"/>
<path d="M3221 1068 c1 -29 4 -43 6 -30 2 12 9 22 15 22 5 0 19 -10 29 -22
l20 -23 -11 23 c-9 17 -8 27 0 38 19 22 4 44 -30 44 -30 0 -30 0 -29 -52z m47
25 c-5 -26 -38 -29 -38 -4 0 15 6 21 21 21 14 0 19 -5 17 -17z"/>
<path d="M3420 1070 l0 -51 32 3 c25 2 35 9 42 31 13 37 -2 61 -43 65 l-31 3
0 -51z m60 25 c16 -19 -2 -65 -25 -65 -11 0 -15 11 -15 40 0 43 17 53 40 25z"/>
</g>
</svg>
